<svg width="220" height="80" viewBox="0 0 220 80" fill="none" xmlns="http://www.w3.org/2000/svg">
<path d="M0 26.6667C0 20.3549 5.00834 15.2381 11.1864 15.2381V38.0952C5.00834 38.0952 0 32.9785 0 26.6667Z" fill="#1B2C29"/>
<path d="M52.2034 26.6667C52.2034 20.3549 57.2118 15.2381 63.3898 15.2381V38.0952C57.2118 38.0952 52.2034 32.9785 52.2034 26.6667Z" fill="#1B2C29"/>
<path d="M85.7627 26.6667C85.7627 20.3549 80.7543 15.2381 74.5763 15.2381V38.0952C80.7543 38.0952 85.7627 32.9785 85.7627 26.6667Z" fill="#1B2C29"/>
<path d="M52.2034 68.5714C52.2034 62.2596 57.2118 57.1429 63.3898 57.1429V80C57.2118 80 52.2034 74.8833 52.2034 68.5714Z" fill="#1B2C29"/>
<path d="M85.7627 68.5714C85.7627 62.2596 80.7543 57.1429 74.5763 57.1429V80C80.7543 80 85.7627 74.8833 85.7627 68.5714Z" fill="#1B2C29"/>
<path d="M33.5593 68.5714C33.5593 62.2596 28.551 57.1429 22.3729 57.1429V80H33.5593V68.5714Z" fill="#1B2C29"/>
<path d="M156.61 26.6667C156.61 20.3549 161.619 15.2381 167.797 15.2381V38.0952C161.619 38.0952 156.61 32.9785 156.61 26.6667Z" fill="#1B2C29"/>
<path d="M208.814 15.2381C214.992 15.2381 220 20.3549 220 26.6667V38.0952C213.821 38.0952 208.814 32.9785 208.814 26.6667V15.2381Z" fill="#1B2C29"/>
<path d="M104.407 49.5238C110.585 49.5238 115.593 54.6406 115.593 60.9524V80C109.415 80 104.407 74.8832 104.407 68.5714V49.5238Z" fill="#1B2C29"/>
<path d="M190.169 26.6667C190.169 20.3549 185.161 15.2381 178.983 15.2381V26.6667H190.169Z" fill="#1B2C29"/>
<path d="M156.61 68.5714C156.61 62.2596 161.619 57.1429 167.797 57.1429V80C161.619 80 156.61 74.8833 156.61 68.5714Z" fill="#1B2C29"/>
<path d="M190.169 68.5714C190.169 62.2596 185.161 57.1429 178.983 57.1429V68.5714H190.169Z" fill="#1B2C29"/>
<path d="M137.966 57.1429H126.78V68.5714C132.958 68.5714 137.966 63.4547 137.966 57.1429Z" fill="#1B2C29"/>
<path d="M27.9661 22.8572C31.0552 22.8572 33.5593 20.2988 33.5593 17.1429C33.5593 13.987 31.0552 11.4286 27.9661 11.4286C24.8771 11.4286 22.3729 13.987 22.3729 17.1429C22.3729 20.2988 24.8771 22.8572 27.9661 22.8572Z" fill="#1B2C29"/>
<path d="M104.407 19.0476C104.407 12.7358 109.415 7.61902 115.593 7.61902V38.0952C109.415 38.0952 104.407 32.9785 104.407 26.6666V19.0476Z" fill="#1B2C29"/>
<path d="M132.373 19.0476C135.462 19.0476 137.966 16.4892 137.966 13.3333C137.966 10.1774 135.462 7.61902 132.373 7.61902C129.284 7.61902 126.78 10.1774 126.78 13.3333C126.78 16.4892 129.284 19.0476 132.373 19.0476Z" fill="#1B2C29"/>
<path d="M214.407 11.4286C217.496 11.4286 220 8.8702 220 5.71429C220 2.55837 217.496 0 214.407 0C211.318 0 208.814 2.55837 208.814 5.71429C208.814 8.8702 211.318 11.4286 214.407 11.4286Z" fill="#1B2C29"/>
<path d="M126.78 26.6667H137.966C137.966 32.9785 132.958 38.0953 126.78 38.0953V26.6667Z" fill="#1B2C29"/>
<path d="M22.3729 26.6667H33.5593C33.5593 32.9785 28.551 38.0953 22.3729 38.0953V26.6667Z" fill="#1B2C29"/>
<path d="M5.59322 64.7619C8.68227 64.7619 11.1864 62.2035 11.1864 59.0476C11.1864 55.8917 8.68227 53.3333 5.59322 53.3333C2.50417 53.3333 0 55.8917 0 59.0476C0 62.2035 2.50417 64.7619 5.59322 64.7619Z" fill="#1B2C29"/>
<path d="M0 68.5715C6.1781 68.5715 11.1864 73.6882 11.1864 80H0V68.5715Z" fill="#1B2C29"/>
</svg>
