<svg width="512" height="512" viewBox="0 0 512 512" fill="none" xmlns="http://www.w3.org/2000/svg">
<style>
path {
  fill: #2A4053;
}
@media (prefers-color-scheme: dark) {
  path {
    fill: #daddde;
  }
}
</style>
<path d="M376.392 423.341C394.827 414.421 420.579 366.55 412.774 324.15C404.969 281.75 377.079 265.362 328.468 239.848C279.858 214.334 148.493 143.089 129.132 94.2139C99.382 110.506 91.316 168.656 103.508 201.375C115.701 234.095 143.373 255.854 195.644 279.951C293.579 325.098 371.526 390.09 376.392 423.341Z" />
<path d="M405.372 124.626C405.686 159.483 384 182.405 354.118 180.228C324.236 178.052 293.113 156.831 294.971 126.935C297.268 89.9747 316.729 74.548 348.837 73.0615C380.946 71.5751 405.058 89.7691 405.372 124.626Z" />
<path d="M97.916 389.423C100.269 423.042 117.733 443.037 149.17 445.025C180.607 447.014 207.531 427.959 208.317 391.732C208.317 357.487 186.78 341.266 154.45 337.859C119.758 334.202 95.8527 359.938 97.916 389.423Z" />
</svg>
