<svg width="24" height="24" viewBox="0 0 24 24" fill="none" xmlns="http://www.w3.org/2000/svg">
<path fill-rule="evenodd" clip-rule="evenodd" d="M15.948 16.668H8.06398L8.05198 9.76801C8.05198 9.69601 8.07598 9.62401 8.11198 9.58801C8.32512 9.3555 8.53825 9.12174 8.75179 8.88753C9.1995 8.39649 9.64899 7.9035 10.104 7.41601C10.14 7.38001 10.212 7.34401 10.248 7.34401H15.948V16.668ZM8.99998 10.62C8.99998 10.968 9.28798 11.256 9.63598 11.256V11.244H11.34C11.688 11.244 11.976 10.956 11.976 10.608V8.90401C11.976 8.55601 11.688 8.26801 11.34 8.26801C10.992 8.26801 10.704 8.55601 10.704 8.90401V9.98401H9.63598C9.28798 9.98401 8.99998 10.272 8.99998 10.62Z" fill="black"/>
<path fill-rule="evenodd" clip-rule="evenodd" d="M0 0H24V24H0V0ZM17.52 6.55201C17.52 6.12001 17.16 5.76001 16.728 5.76001V5.77201H9.91198C9.61198 5.77201 9.37198 5.86801 9.16798 6.09601L6.79198 8.68801C6.57598 8.91601 6.47998 9.16801 6.47998 9.48001V17.46C6.47998 17.892 6.83998 18.252 7.27198 18.252H16.728C17.172 18.252 17.52 17.892 17.52 17.46V6.55201Z" fill="black"/>
</svg>
