<svg width="24" height="24" viewBox="0 0 24 24" fill="none" xmlns="http://www.w3.org/2000/svg">
<path fill-rule="evenodd" clip-rule="evenodd" d="M0 0H24V24H0V0ZM17.97 9.34205C17.97 13.4041 14.874 18.0961 9.21598 18.0961C7.48198 18.0961 5.86198 17.5861 4.50598 16.7221C4.74598 16.7521 4.99198 16.7641 5.23798 16.7641C6.67798 16.7641 8.00398 16.2721 9.05998 15.4441C7.71598 15.4201 6.57598 14.5321 6.18598 13.3081C6.37198 13.3441 6.56398 13.3621 6.76198 13.3621C7.04398 13.3621 7.31398 13.3261 7.57198 13.2541C6.16798 12.9721 5.10598 11.7241 5.10598 10.2361V10.1941C5.51998 10.4221 5.99398 10.5601 6.49798 10.5781C5.67598 10.0261 5.12998 9.08405 5.12998 8.01605C5.12998 7.45205 5.27998 6.92405 5.54398 6.46805C7.06198 8.32805 9.32998 9.55805 11.886 9.68405C11.838 9.45605 11.808 9.22205 11.808 8.98205C11.808 7.28405 13.188 5.90405 14.886 5.90405C15.768 5.90405 16.566 6.27605 17.13 6.87605C17.832 6.73805 18.492 6.48605 19.086 6.13205C18.852 6.85205 18.366 7.45805 17.73 7.83605C18.354 7.75805 18.948 7.59605 19.5 7.35005C19.086 7.96805 18.564 8.51405 17.964 8.94605C17.97 9.07805 17.97 9.21005 17.97 9.34205Z" fill="black"/>
</svg>
