<svg width="24" height="24" viewBox="0 0 24 24" fill="none" xmlns="http://www.w3.org/2000/svg">
<path d="M7.64042 21.5423C16.4971 21.5423 21.3434 14.1978 21.3434 7.83938C21.3434 7.63276 21.3434 7.42613 21.334 7.21951C22.2732 6.54329 23.0903 5.68861 23.7383 4.72124C22.8742 5.10631 21.9444 5.35989 20.9677 5.48199C21.9632 4.89029 22.724 3.9417 23.0903 2.81466C22.1605 3.36879 21.1273 3.76325 20.0285 3.97927C19.1456 3.04007 17.8965 2.45776 16.5159 2.45776C13.8579 2.45776 11.6978 4.61792 11.6978 7.27586C11.6978 7.65154 11.7447 8.01783 11.8199 8.37472C7.81887 8.17749 4.26869 6.25213 1.89252 3.34061C1.47927 4.0544 1.24447 4.8809 1.24447 5.76375C1.24447 7.43553 2.09914 8.91007 3.38585 9.77413C2.59692 9.74596 1.85495 9.52994 1.2069 9.17304C1.2069 9.19183 1.2069 9.21061 1.2069 9.23879C1.2069 11.568 2.86928 13.5215 5.06701 13.963C4.66316 14.0757 4.24052 14.132 3.79909 14.132C3.48916 14.132 3.18861 14.1038 2.89746 14.0475C3.50794 15.9635 5.29242 17.3535 7.39623 17.391C5.74324 18.6871 3.66761 19.4573 1.41352 19.4573C1.02845 19.4573 0.64338 19.4385 0.2677 19.3915C2.39029 20.744 4.92613 21.5423 7.64042 21.5423Z" fill="currentColor"/>
</svg>
